<?xml version="1.0" encoding="UTF-8" standalone="no"?>
<!-- Created with Inkscape (http://www.inkscape.org/) -->

<svg
   xmlns:dc="http://purl.org/dc/elements/1.1/"
   xmlns:cc="http://creativecommons.org/ns#"
   xmlns:rdf="http://www.w3.org/1999/02/22-rdf-syntax-ns#"
   xmlns:svg="http://www.w3.org/2000/svg"
   xmlns="http://www.w3.org/2000/svg"
   xmlns:sodipodi="http://sodipodi.sourceforge.net/DTD/sodipodi-0.dtd"
   xmlns:inkscape="http://www.inkscape.org/namespaces/inkscape"
   width="210mm"
   height="297mm"
   viewBox="0 0 744.09448819 1052.3622047"
   id="svg5688"
   version="1.1"
   inkscape:version="0.91 r13725"
   sodipodi:docname="charcter.svg">
  <defs
     id="defs5690" />
  <sodipodi:namedview
     id="base"
     pagecolor="#ffffff"
     bordercolor="#666666"
     borderopacity="1.0"
     inkscape:pageopacity="0.0"
     inkscape:pageshadow="2"
     inkscape:zoom="0.49497475"
     inkscape:cx="209.44375"
     inkscape:cy="660.36494"
     inkscape:document-units="px"
     inkscape:current-layer="layer1"
     showgrid="false"
     inkscape:window-width="1920"
     inkscape:window-height="997"
     inkscape:window-x="0"
     inkscape:window-y="24"
     inkscape:window-maximized="1" />
  <metadata
     id="metadata5693">
    <rdf:RDF>
      <cc:Work
         rdf:about="">
        <dc:format>image/svg+xml</dc:format>
        <dc:type
           rdf:resource="http://purl.org/dc/dcmitype/StillImage" />
        <dc:title></dc:title>
      </cc:Work>
    </rdf:RDF>
  </metadata>
  <g
     inkscape:label="Layer 1"
     inkscape:groupmode="layer"
     id="layer1">
    <g
       id="g5374"
       transform="matrix(3.4778068,0,0,-3.4778068,-1068.215,2749.9173)">
      <g
         id="g3484"
         transform="translate(489.53145,513.73247)">
        <path
           d="m 0,0 c 0,-12.138 -31.219,-21.977 -69.729,-21.977 -38.51,0 -69.729,9.839 -69.729,21.977 0,12.138 31.219,21.977 69.729,21.977 C -31.219,21.977 0,12.138 0,0"
           style="fill:#9adbf9;fill-opacity:1;fill-rule:nonzero;stroke:none"
           id="path3486"
           inkscape:connector-curvature="0" />
      </g>
      <g
         id="g4272"
         transform="translate(403.22425,659.02277)">
        <path
           d="m 0,0 c 0,0 -20.169,0.527 -25.492,-14.22 -5.323,-14.747 -1.961,-60.04 2.521,-63.99 4.482,-3.95 54.066,-6.32 62.189,-0.527 8.124,5.794 7.004,61.884 6.163,66.887 C 44.541,-6.847 30.534,-0.263 0,0"
           style="fill:#3e0800;fill-opacity:1;fill-rule:nonzero;stroke:none"
           id="path4274"
           inkscape:connector-curvature="0" />
      </g>
      <g
         id="g4276"
         transform="translate(394.72805,524.66937)">
        <path
           d="m 0,0 c 0,0 -3.075,0.145 -6.091,-5.962 -3.017,-6.107 -4.419,-12.64 1.134,-16.175 5.553,-3.535 14.562,-1.985 17.893,0.683 3.331,2.668 0.897,15.829 0.095,17.517 -0.803,1.687 -1.66,2.627 -1.66,2.627 L 0,0 Z"
           style="fill:#252525;fill-opacity:1;fill-rule:nonzero;stroke:none"
           id="path4278"
           inkscape:connector-curvature="0" />
      </g>
      <g
         id="g4280"
         transform="translate(391.57735,554.08607)">
        <path
           d="m 0,0 c 0,0 2.233,-27.199 2.223,-30.148 -0.009,-2.949 -4.216,-10.574 4.234,-12.446 8.451,-1.873 7.754,8.308 8.065,11.868 0.311,3.559 6.732,30.951 6.732,30.951 C 21.254,0.225 3.723,-1.125 0,0"
           style="fill:#fecc8d;fill-opacity:1;fill-rule:nonzero;stroke:none"
           id="path4282"
           inkscape:connector-curvature="0" />
      </g>
      <g
         id="g4284"
         transform="translate(386.06165,511.07377)">
        <path
           d="m 0,0 c 0,0 -1.825,-3.345 -0.787,-6.115 0.927,-2.472 3.745,-4.966 10.883,-5.801 7.138,-0.836 11.969,1.936 12.966,4.339 C 24.06,-5.174 24.368,4.38 23.299,7.296 22.763,8.758 21.38,10.325 21.697,9.658 22.5,7.971 22.817,-2.958 20.37,-6.192 17.923,-9.427 10.121,-9.307 7.533,-8.634 1.023,-6.94 0.508,-3.701 0,0"
           style="fill:#151515;fill-opacity:1;fill-rule:nonzero;stroke:none"
           id="path4286"
           inkscape:connector-curvature="0" />
      </g>
      <g
         id="g4288"
         transform="translate(395.33735,553.67477)">
        <path
           d="m 0,0 c -1.651,0.056 -2.998,0.181 -3.76,0.411 0,0 2.233,-27.199 2.223,-30.148 -0.009,-2.949 -4.216,-10.574 4.234,-12.446 0.012,-0.003 0.021,-0.002 0.033,-0.005 -4.762,2.278 -2.711,9.195 -2.247,13.823 C 0.908,-24.126 0.128,-5.781 0,0"
           style="fill:#faac73;fill-opacity:1;fill-rule:nonzero;stroke:none"
           id="path4290"
           inkscape:connector-curvature="0" />
      </g>
      <g
         id="g4292"
         transform="translate(393.80055,523.93817)">
        <path
           d="m 0,0 c -0.009,-2.949 -4.217,-10.574 4.234,-12.447 8.451,-1.872 7.754,8.309 8.065,11.869 0.12,1.38 1.161,6.347 2.388,11.908 C 9.311,10.492 2.971,11.048 -0.752,11.533 -0.337,6.031 0.004,1.155 0,0"
           style="fill:#ffffff;fill-opacity:1;fill-rule:nonzero;stroke:none"
           id="path4294"
           inkscape:connector-curvature="0" />
      </g>
      <g
         id="g4296"
         transform="translate(406.66855,520.01437)">
        <path
           d="m 0,0 c 0,0 -1.786,2.962 -13.446,2.074 l -0.841,-3.061 c 0,0 10.82,0.098 14.287,-2.568 L 0,0 Z"
           style="fill:#252525;fill-opacity:1;fill-rule:nonzero;stroke:none"
           id="path4298"
           inkscape:connector-curvature="0" />
      </g>
      <g
         id="g4300"
         transform="translate(429.25995,558.08567)">
        <path
           d="m 0,0 c 0,0 6.954,-28.997 8.151,-32.403 1.197,-3.406 14.469,-6.054 14.469,-6.054 l 5.008,4.49 -0.489,1.04 c 0,0 -3.668,0.949 -5.567,3.397 -1.898,2.448 -2.89,32.981 -2.89,32.981 L 0,0 Z"
           style="fill:#fecc8d;fill-opacity:1;fill-rule:nonzero;stroke:none"
           id="path4302"
           inkscape:connector-curvature="0" />
      </g>
      <g
         id="g4304"
         transform="translate(440.19465,536.41747)">
        <path
           d="m 0,0 c -8.133,12.412 0.209,21.544 0.209,21.544 l -1.444,1.916 -9.7,-1.792 c 0,0 4.496,-18.745 6.88,-27.86 C 0.4,-7.343 4.722,-7.207 0,0"
           style="fill:#faac73;fill-opacity:1;fill-rule:nonzero;stroke:none"
           id="path4306"
           inkscape:connector-curvature="0" />
      </g>
      <g
         id="g4308"
         transform="translate(450.83235,528.55577)">
        <path
           d="M 0,0 C -0.745,0.961 -1.35,6.255 -1.811,12.327 -6.785,9.811 -13.18,9.713 -16.786,9.919 c 1.499,-6.023 2.888,-11.436 3.365,-12.792 1.197,-3.406 14.469,-6.055 14.469,-6.055 l 5.007,4.491 -0.488,1.04 c 0,0 -3.669,0.949 -5.567,3.397"
           style="fill:#ffffff;fill-opacity:1;fill-rule:nonzero;stroke:none"
           id="path4310"
           inkscape:connector-curvature="0" />
      </g>
      <g
         id="g4312"
         transform="translate(437.41115,525.68287)">
        <path
           d="m 0,0 c 0,0 2.859,-1.141 9.205,-2.442 6.347,-1.301 7.795,0.299 9.243,1.899 1.449,1.6 9.751,0.701 11.668,-2.975 1.918,-3.676 -3.139,-6.506 -13.271,-8.587 C 6.713,-14.186 -3.466,-9.503 -4.315,-7.724 -5.164,-5.945 -2.447,-0.666 0,0"
           style="fill:#252525;fill-opacity:1;fill-rule:nonzero;stroke:none"
           id="path4314"
           inkscape:connector-curvature="0" />
      </g>
      <g
         id="g4316"
         transform="translate(433.36755,520.45687)">
        <path
           d="m 0,0 c 0,0 6.034,-3.907 15.513,-5.704 9.478,-1.797 17.788,4.305 19.1,5.714 0,0 1.56,-1.633 -0.244,-3.306 C 32.566,-4.968 25.13,-9.426 15.46,-8.32 5.79,-7.213 -0.434,-3.996 -1.351,-3.371 -2.268,-2.745 -1.149,0.09 0,0"
           style="fill:#151515;fill-opacity:1;fill-rule:nonzero;stroke:none"
           id="path4318"
           inkscape:connector-curvature="0" />
      </g>
      <g
         id="g4320"
         transform="translate(457.19985,634.68567)">
        <path
           d="m 0,0 c 0,0 9.677,-22.25 11.056,-26.725 1.38,-4.475 7.293,-5.58 9.916,-7.47 2.623,-1.89 -2.338,-4.247 -5.908,-3.34 -1.886,0.478 3.204,-7.537 1.224,-8.711 -1.98,-1.174 -5.02,2.819 -5.821,3.869 -0.8,1.051 0.486,-5.076 -1.175,-5.558 -1.662,-0.483 -2.816,3.031 -2.914,4.713 -0.098,1.682 0.197,-4.476 -1.913,-4.148 -2.109,0.328 -1.348,5.767 -1.348,5.767 0,0 -0.474,-4.927 -2.744,-4.389 -2.269,0.538 -0.197,4.476 -0.518,6.008 -0.321,1.531 -1.516,3.355 -0.656,6 0.859,2.644 1.039,3.503 0.271,4.734 -0.769,1.231 -10.13,17.944 -12.474,27.014 L 0,0 Z"
           style="fill:#fecc8d;fill-opacity:1;fill-rule:nonzero;stroke:none"
           id="path4322"
           inkscape:connector-curvature="0" />
      </g>
      <g
         id="g4324"
         transform="translate(457.05475,594.70127)">
        <path
           d="m 0,0 c 0.321,-1.532 -1.751,-5.469 0.518,-6.008 0.083,-0.019 0.158,-0.017 0.236,-0.023 -0.193,0.501 -0.224,1.247 -0.212,2.638 0.024,2.614 1.328,4.959 0.221,7.014 -1.106,2.055 1.851,3.538 1.706,5.775 -0.145,2.237 -0.339,2.449 -2.63,6.921 -2.291,4.472 -3.888,13.887 -3.888,13.887 l -7.939,6.357 -0.416,-0.382 c 2.9,-9.3 11.293,-24.281 12.019,-25.445 C 0.383,9.504 0.203,8.645 -0.656,6 -1.516,3.356 -0.321,1.532 0,0"
           style="fill:#faac73;fill-opacity:1;fill-rule:nonzero;stroke:none"
           id="path4326"
           inkscape:connector-curvature="0" />
      </g>
      <g
         id="g4328"
         transform="translate(383.66565,628.96127)">
        <path
           d="m 0,0 c 0,0 -8.242,-19.766 -7.676,-26.374 0,0 -7.008,-6.063 -7.883,-10.315 -0.875,-4.251 -2.144,-5.362 0.078,-6.455 2.222,-1.093 4.366,4.27 6.623,5.786 2.256,1.517 4.24,3.039 4.914,0.367 0.673,-2.672 1.62,-5.35 3.97,-4.975 2.351,0.376 2.536,6.113 1.925,9.401 -0.61,3.288 9.576,18.676 11.577,29.642 0,0 -14.722,3.376 -13.528,2.923"
           style="fill:#fecc8d;fill-opacity:1;fill-rule:nonzero;stroke:none"
           id="path4330"
           inkscape:connector-curvature="0" />
      </g>
      <g
         id="g4332"
         transform="translate(392.59195,627.08377)">
        <path
           d="m 0,0 -2.057,-3.156 c 0,0 -3.325,-16.024 -7.347,-21.787 -2.135,-3.059 1.1,-6.294 0.802,-10.72 -0.176,-2.612 -0.608,-3.721 -1.291,-4.367 0.303,-0.079 0.625,-0.117 0.993,-0.058 2.351,0.375 2.536,6.113 1.925,9.401 -0.611,3.287 9.576,18.676 11.577,29.641 0,0 -2.074,0.476 -4.602,1.046"
           style="fill:#faac73;fill-opacity:1;fill-rule:nonzero;stroke:none"
           id="path4334"
           inkscape:connector-curvature="0" />
      </g>
      <g
         id="g4336"
         transform="translate(392.75665,596.20007)">
        <path
           d="m 0,0 c 0,0 -7.617,-39.387 -6.424,-43.138 1.773,-5.573 27.772,-8.171 32.036,-2.766 2.245,2.846 3.315,13.797 3.315,13.797 0,0 1.425,-12.059 3.772,-13.522 4.622,-2.881 19.861,0.879 25.916,5.741 2.192,1.761 0.134,32.536 -2.904,38.675 C 52.673,4.926 31.557,-8.499 0,0"
           style="fill:#2c5caa;fill-opacity:1;fill-rule:nonzero;stroke:none"
           id="path4338"
           inkscape:connector-curvature="0" />
      </g>
      <g
         id="g4340"
         transform="translate(431.81865,554.20107)">
        <path
           d="m 0,0 c -6.548,3.858 -8.404,20.431 -9.006,19.242 -0.601,-1.189 -1.129,-9.35 -1.129,-9.35 0,0 1.425,-12.059 3.772,-13.522 3.904,-2.434 15.367,-0.123 22.487,3.583 C 11.606,-2.139 5.033,-2.966 0,0"
           style="fill:#1e489e;fill-opacity:1;fill-rule:nonzero;stroke:none"
           id="path4342"
           inkscape:connector-curvature="0" />
      </g>
      <g
         id="g4344"
         transform="translate(412.81685,593.30307)">
        <path
           d="m 0,0 -0.002,0.014 c -6.072,0.138 -12.783,0.924 -20.058,2.883 0,0 -7.617,-39.387 -6.424,-43.138 1.773,-5.573 27.772,-8.171 32.036,-2.766 -2.686,-2.123 -10.103,-2.192 -17.033,0.787 -6.93,2.979 -8.88,13.355 -4.842,23.797 C -12.285,-7.982 -0.824,-0.157 0,0"
           style="fill:#1e489e;fill-opacity:1;fill-rule:nonzero;stroke:none"
           id="path4346"
           inkscape:connector-curvature="0" />
      </g>
      <g
         id="g4348"
         transform="translate(416.19675,652.35607)">
        <path
           d="m 0,0 c 0,0 -10.663,0.63 -23.303,-5.268 -12.64,-5.898 -13.219,-21.909 -13.366,-23.483 -0.147,-1.574 16.605,-2.953 18.336,-1.51 1.732,1.444 -0.068,11.505 5.867,13.99 C -6.532,-13.786 -0.595,-1.488 0,0"
           style="fill:#ffffff;fill-opacity:1;fill-rule:nonzero;stroke:none"
           id="path4350"
           inkscape:connector-curvature="0" />
      </g>
      <g
         id="g4352"
         transform="translate(419.80225,651.48867)">
        <path
           d="m 0,0 c 0,0 10.381,2.373 23.923,-1.357 13.542,-3.73 17.091,-19.399 17.528,-20.925 0.437,-1.525 -15.8,-5.637 -17.773,-4.5 -1.973,1.137 -2.073,11.338 -8.378,12.81 C 8.995,-12.5 0.862,-1.367 0,0"
           style="fill:#ffffff;fill-opacity:1;fill-rule:nonzero;stroke:none"
           id="path4354"
           inkscape:connector-curvature="0" />
      </g>
      <g
         id="g4356"
         transform="translate(408.34135,655.26777)">
        <path
           d="m 0,0 c 0,0 1.683,-3.662 1.261,-5.862 -0.423,-2.2 15.07,-4.429 15.07,-4.429 l 6.158,3.57 c 0,0 2.229,4.928 1.937,6.249 C 24.134,0.849 0,0 0,0"
           style="fill:#faac73;fill-opacity:1;fill-rule:nonzero;stroke:none"
           id="path4358"
           inkscape:connector-curvature="0" />
      </g>
      <g
         id="g4360"
         transform="translate(412.41045,651.55387)">
        <path
           d="m 0,0 c 0,0 1.656,-4.402 10.726,-5.094 9.069,-0.692 7.765,5.526 7.765,5.526 0,0 10.505,-0.063 14.623,-11.66 4.118,-11.597 7.124,-44.238 6.084,-47.761 0,0 -25.588,-18.84 -60.71,2.863 0,0 6.566,18.409 6.023,28.308 C -16.032,-17.919 -29.143,-1.022 0,0"
           style="fill:#ffffff;fill-opacity:1;fill-rule:nonzero;stroke:none"
           id="path4362"
           inkscape:connector-curvature="0" />
      </g>
      <g
         id="g4364"
         transform="translate(418.88915,639.23747)">
        <path
           d="m 0,0 c 0,0 -6.643,-31.995 -7.654,-34.728 -1.01,-2.734 10.851,-13.991 13.335,-14.468 2.483,-0.476 10.6,9.929 11.332,11.289 C 17.746,-36.548 5.487,0.809 5.487,0.809 L 0,0 Z"
           style="fill:#2c5caa;fill-opacity:1;fill-rule:nonzero;stroke:none"
           id="path4366"
           inkscape:connector-curvature="0" />
      </g>
      <g
         id="g4368"
         transform="translate(415.48985,639.54647)">
        <path
           d="m 0,0 c 0,0 4.205,-3.102 7.172,-2.804 2.967,0.298 6.088,4.741 6.088,4.741 L 9.34,6.611 c 0,0 -0.425,0.804 -3.861,0.126 C 2.044,6.059 -1.714,2.823 0,0"
           style="fill:#1e489e;fill-opacity:1;fill-rule:nonzero;stroke:none"
           id="path4370"
           inkscape:connector-curvature="0" />
      </g>
      <g
         id="g4372"
         transform="translate(432.52555,614.34837)">
        <path
           d="m 0,0 -17.921,-15.772 c 1.33,-1.52 2.886,-3.093 4.393,-4.472 L 1.721,-5.823 C 1.218,-4.065 0.634,-2.092 0,0"
           style="fill:#1e489e;fill-opacity:1;fill-rule:nonzero;stroke:none"
           id="path4374"
           inkscape:connector-curvature="0" />
      </g>
      <g
         id="g4376"
         transform="translate(428.90315,625.99437)">
        <path
           d="m 0,0 -15.871,-14.129 c -0.846,-3.768 -1.525,-6.622 -1.797,-7.356 -0.086,-0.234 -0.048,-0.55 0.04,-0.897 L 1.595,-5.068 C 1.061,-3.357 0.524,-1.652 0,0"
           style="fill:#1e489e;fill-opacity:1;fill-rule:nonzero;stroke:none"
           id="path4378"
           inkscape:connector-curvature="0" />
      </g>
      <g
         id="g4380"
         transform="translate(410.82475,652.79137)">
        <path
           d="m 0,0 c -4.557,-0.159 -3.859,-0.566 -4.953,-3.088 -1.095,-2.521 4.642,-9.813 7.922,-11.341 3.28,-1.529 6.929,6.877 8.294,7.684 C 12.627,-5.937 1.838,0.064 0,0"
           style="fill:#e6e7e8;fill-opacity:1;fill-rule:nonzero;stroke:none"
           id="path4382"
           inkscape:connector-curvature="0" />
      </g>
      <g
         id="g4384"
         transform="translate(430.40645,652.25047)">
        <path
           d="m 0,0 c 3.618,0.037 3.088,-0.31 4.1,-2.268 1.011,-1.958 -3.113,-7.938 -5.623,-9.265 -2.51,-1.328 -5.882,5.197 -7.009,5.788 C -9.659,-5.154 -1.459,-0.015 0,0"
           style="fill:#e6e7e8;fill-opacity:1;fill-rule:nonzero;stroke:none"
           id="path4386"
           inkscape:connector-curvature="0" />
      </g>
      <g
         id="g4388"
         transform="translate(357.01055,686.31917)">
        <path
           d="m 0,0 c 0,0 -8.028,-8.91 -1.922,-17.226 6.106,-8.316 11.781,-3.079 11.781,-3.079 0,0 -0.913,-4.773 3.341,-6.962 4.254,-2.189 6.736,5.034 6.736,5.034 0,0 7.596,-9.151 16.34,-3.677 8.745,5.474 -10.628,36.396 -10.628,36.396 L 0,0 Z"
           style="fill:#5d2016;fill-opacity:1;fill-rule:nonzero;stroke:none"
           id="path4390"
           inkscape:connector-curvature="0" />
      </g>
      <g
         id="g4392"
         transform="translate(370.27485,689.55367)">
        <path
           d="m 0,0 c 0,0 -12.379,-1.48 -8.27,-11.612 4.109,-10.133 14.557,-5.81 14.557,-5.81 0,0 3.336,-12.734 37.167,-18.384 33.831,-5.649 59.946,18.767 65.184,44.705 5.239,25.937 -12.903,48.927 -13.699,49.079 -0.795,0.153 -37.774,2.281 -37.774,2.281 L 24.599,53.846 7.674,38.667 0,0 Z"
           style="fill:#fecc8d;fill-opacity:1;fill-rule:nonzero;stroke:none"
           id="path4394"
           inkscape:connector-curvature="0" />
      </g>
      <g
         id="g4396"
         transform="translate(390.62565,660.28797)">
        <path
           d="M 0,0 C 5.408,-2.463 12.847,-4.827 23.103,-6.54 48.847,-10.839 70.111,2.277 81.12,20.22 72.057,10.796 54.042,-4.272 33.755,-1.156 4.647,3.315 -1.855,21.053 -1.855,21.053 c 0,0 8.632,6.32 5.517,11.59 -2.666,4.509 -4.047,4.143 -4.391,3.944 0.564,0.404 3.8,3.051 2.003,9.433 -1.965,6.973 0.468,1.01 0.468,1.01 0,0 4.282,0.83 4.439,7.397 0,0 16.933,-4.89 24.159,11.321 0,0 17.693,-6.686 24.317,4.968 0,0 8.898,-6.651 15.849,-1.934 0,0 1.609,-8.829 8.644,-7.977 0,0 0.08,-9.636 4.538,-10.764 0,0 -1.624,-8.486 2.427,-11.736 0.553,-0.443 1.315,-0.364 2.211,0.078 5.092,25.848 -12.944,48.709 -13.738,48.861 -0.795,0.152 -37.774,2.281 -37.774,2.281 L 4.248,83.112 -12.676,67.932 -20.351,29.266 c 0,0 -0.179,-0.022 -0.479,-0.076 3.389,-1.008 5.973,-2.195 6.387,-3.529 0,0 -1.912,-5.682 0.379,-13.817 C -13.364,9.361 -8.862,3.763 0,0"
           style="fill:#faac73;fill-opacity:1;fill-rule:nonzero;stroke:none"
           id="path4398"
           inkscape:connector-curvature="0" />
      </g>
      <g
         id="g4400"
         transform="translate(454.67115,708.98327)">
        <path
           d="m 0,0 c -9.808,-0.612 -13.103,-14.964 -5.584,-21.561 7.519,-6.597 17.405,2.436 16.761,11.665 C 10.533,-0.668 4.049,0.253 0,0"
           style="fill:#ffffff;fill-opacity:1;fill-rule:nonzero;stroke:none"
           id="path4402"
           inkscape:connector-curvature="0" />
      </g>
      <g
         id="g4404"
         transform="translate(411.32855,710.83657)">
        <path
           d="m 0,0 c -11.592,-0.573 -14.137,-9.574 -9.236,-19.679 4.9,-10.106 18.856,-6 21.858,2.922 C 15.624,-7.835 8.908,0.441 0,0"
           style="fill:#ffffff;fill-opacity:1;fill-rule:nonzero;stroke:none"
           id="path4406"
           inkscape:connector-curvature="0" />
      </g>
      <g
         id="g4408"
         transform="translate(417.92505,698.57787)">
        <path
           d="m 0,0 c 0.012,-3.057 -2.456,-5.545 -5.513,-5.557 -3.057,-0.012 -5.545,2.456 -5.557,5.513 -0.012,3.057 2.456,5.545 5.513,5.557 C -2.5,5.525 -0.012,3.057 0,0"
           style="fill:#5d2016;fill-opacity:1;fill-rule:nonzero;stroke:none"
           id="path4410"
           inkscape:connector-curvature="0" />
      </g>
      <g
         id="g4412"
         transform="translate(412.95245,700.43017)">
        <path
           d="m 0,0 c 0.005,-1.304 -1.047,-2.365 -2.351,-2.37 -1.304,-0.005 -2.365,1.047 -2.37,2.351 -0.005,1.304 1.047,2.365 2.351,2.37 C -1.066,2.356 -0.005,1.304 0,0"
           style="fill:#ffffff;fill-opacity:1;fill-rule:nonzero;stroke:none"
           id="path4414"
           inkscape:connector-curvature="0" />
      </g>
      <g
         id="g4416"
         transform="translate(415.82145,695.39497)">
        <path
           d="m 0,0 c 0.002,-0.584 -0.47,-1.06 -1.054,-1.062 -0.584,-0.003 -1.06,0.469 -1.062,1.054 -0.003,0.584 0.469,1.06 1.054,1.062 C -0.478,1.056 -0.002,0.584 0,0"
           style="fill:#ffffff;fill-opacity:1;fill-rule:nonzero;stroke:none"
           id="path4418"
           inkscape:connector-curvature="0" />
      </g>
      <g
         id="g4420"
         transform="translate(459.37235,698.03457)">
        <path
           d="m 0,0 c 0.01,-2.535 -2.037,-4.598 -4.572,-4.608 -2.535,-0.01 -4.598,2.036 -4.608,4.571 -0.01,2.535 2.037,4.598 4.572,4.609 C -2.073,4.582 -0.01,2.535 0,0"
           style="fill:#5d2016;fill-opacity:1;fill-rule:nonzero;stroke:none"
           id="path4422"
           inkscape:connector-curvature="0" />
      </g>
      <g
         id="g4424"
         transform="translate(455.24875,699.57057)">
        <path
           d="m 0,0 c 0.004,-1.081 -0.869,-1.961 -1.95,-1.965 -1.081,-0.005 -1.961,0.868 -1.965,1.949 -0.004,1.081 0.869,1.961 1.95,1.966 C -0.884,1.954 -0.004,1.081 0,0"
           style="fill:#ffffff;fill-opacity:1;fill-rule:nonzero;stroke:none"
           id="path4426"
           inkscape:connector-curvature="0" />
      </g>
      <g
         id="g4428"
         transform="translate(457.62785,695.39507)">
        <path
           d="m 0,0 c 0.002,-0.485 -0.389,-0.879 -0.874,-0.881 -0.485,-0.002 -0.879,0.389 -0.881,0.874 -0.002,0.485 0.389,0.879 0.874,0.881 C -0.396,0.876 -0.002,0.485 0,0"
           style="fill:#ffffff;fill-opacity:1;fill-rule:nonzero;stroke:none"
           id="path4430"
           inkscape:connector-curvature="0" />
      </g>
      <g
         id="g4432"
         transform="translate(409.59975,718.45327)">
        <path
           d="m 0,0 c -0.598,1.325 -9.201,1.218 -9.85,-4.724 -0.415,-3.796 3.675,1.289 5.707,1.605 C -2.112,-2.804 0.711,-1.576 0,0"
           style="fill:#5d2016;fill-opacity:1;fill-rule:nonzero;stroke:none"
           id="path4434"
           inkscape:connector-curvature="0" />
      </g>
      <g
         id="g4436"
         transform="translate(453.76055,717.93827)">
        <path
           d="M 0,0 C 0.476,1.374 9.052,2.048 10.238,-3.81 10.996,-7.553 6.462,-2.861 4.41,-2.731 2.358,-2.601 -0.565,-1.634 0,0"
           style="fill:#5d2016;fill-opacity:1;fill-rule:nonzero;stroke:none"
           id="path4438"
           inkscape:connector-curvature="0" />
      </g>
      <g
         id="g4440"
         transform="translate(432.46345,692.08837)">
        <path
           d="M 0,0 C 3.032,2.445 10.749,-4.21 8.335,-8.067 5.92,-11.924 -0.772,-9.521 -1.388,-7.296 -2.005,-5.07 -1.009,-0.814 0,0"
           style="fill:#faac73;fill-opacity:1;fill-rule:nonzero;stroke:none"
           id="path4442"
           inkscape:connector-curvature="0" />
      </g>
      <g
         id="g4444"
         transform="translate(392.74405,719.34107)">
        <path
           d="m 0,0 c 0,0 6.489,-3.441 15.978,1.616 9.49,5.056 12.491,13.553 12.491,13.553 0,0 4.328,-4.676 12.689,-4.077 8.362,0.599 11.425,7.985 11.425,7.985 0,0 5.513,-7.103 10.754,-7.007 5.242,0.097 7.972,2.873 7.972,2.873 0,0 0.65,-8.096 4.323,-10.449 3.674,-2.352 6.353,0.159 6.353,0.159 0,0 -3.401,-4.847 -0.98,-9.434 2.421,-4.587 4.277,-4.942 4.277,-4.942 0,0 -6.64,-10.275 -0.049,-13.186 6.59,-2.91 10.38,12.584 5.9,16.465 0,0 7.474,11.765 -2.146,16.08 0,0 4.682,10.1 -5.559,12.609 0,0 1.336,11.29 -9.842,11.78 0,0 5.867,7.674 -1.479,12.379 -7.347,4.704 -15.674,-0.025 -15.674,-0.025 0,0 4.541,7.928 -1.305,10.421 -5.845,2.493 -9.867,-4.159 -9.867,-4.159 0,0 7.384,9.857 -5.497,11.498 -12.881,1.64 -18.003,-6.451 -18.003,-6.451 0,0 -3.629,9.766 -14.175,10.684 -10.545,0.919 -10.887,-15.235 -10.887,-15.235 0,0 -4.713,12.723 -11.359,9.596 -6.646,-3.126 -1.211,-13.513 -1.211,-13.513 0,0 -18.457,9.855 -25.717,-2.226 -7.26,-12.08 6.829,-18.9 6.829,-18.9 0,0 -18.895,-1.057 -17.427,-12.059 1.468,-11.002 12.825,-7.678 12.825,-7.678 0,0 -16.705,-9.723 -12.58,-15.461 4.125,-5.737 9.293,-3.153 9.293,-3.153 0,0 -12.767,-12.126 -4.652,-20.001 8.114,-7.876 12.159,-3.977 12.159,-3.977 6.646,3.127 15.425,4.471 18.224,-1.013 2.799,-5.484 9.441,-4.617 14.184,0.859 3.882,4.48 -0.407,10.799 -4.994,8.378 0,0 9.117,11.725 -2.524,16.977 0,0 11.894,-3.926 10.251,9.034"
           style="fill:#5d2016;fill-opacity:1;fill-rule:nonzero;stroke:none"
           id="path4446"
           inkscape:connector-curvature="0" />
      </g>
      <g
         id="g4448"
         transform="translate(372.02465,682.89617)">
        <path
           d="m 0,0 c -3.515,3.313 -8.26,-0.069 -6.104,-4.605 2.156,-4.536 5.073,-5.094 6.703,-3.757 1.63,1.338 -2.979,1.67 -2.788,4.107 C -1.997,-1.817 2.562,-2.415 0,0"
           style="fill:#faac73;fill-opacity:1;fill-rule:nonzero;stroke:none"
           id="path4450"
           inkscape:connector-curvature="0" />
      </g>
      <g
         id="g4452"
         transform="translate(436.47175,672.45517)">
        <path
           d="M 0,0 C -3.645,0 -4.86,3.24 -5.771,2.633 -6.682,2.025 -4.455,-1.468 -0.304,-1.418 3.797,-1.367 5.619,0.456 4.911,1.367 4.202,2.278 2.633,0 0,0"
           style="fill:#5d2016;fill-opacity:1;fill-rule:nonzero;stroke:none"
           id="path4454"
           inkscape:connector-curvature="0" />
      </g>
      <g
         id="g4456"
         transform="translate(402.38385,650.72777)">
        <path
           d="m 0,0 c 2.378,-1.916 5.046,-30.017 -6.443,-40.817 -2.521,-2.37 -6.163,1.317 -3.362,6.32 2.802,5.004 1.19,26.165 0.315,30.858 C -10.365,1.053 -3.922,3.16 0,0"
           style="fill:#5d2016;fill-opacity:1;fill-rule:nonzero;stroke:none"
           id="path4458"
           inkscape:connector-curvature="0" />
      </g>
      <g
         id="g4460"
         transform="translate(439.85145,650.79367)">
        <path
           d="m 0,0 c -1.224,2.634 8.754,3.621 10.715,-1.383 1.317,-3.36 8.377,-38.302 1.296,-37.426 C 8.019,-38.315 10.33,-22.219 0,0"
           style="fill:#5d2016;fill-opacity:1;fill-rule:nonzero;stroke:none"
           id="path4462"
           inkscape:connector-curvature="0" />
      </g>
    </g>
  </g>
</svg>
